<svg xmlns="http://www.w3.org/2000/svg" width="156" height="150" viewBox="0 0 156 150"><defs><mask id="3nk3b" width="2" height="2" x="-1" y="-1"><path fill="#fff" d="M16 0h140v140H16z"/><path d="M16 0h140v140H16z"/></mask><filter id="3nk3a" width="160" height="170" x="6" y="-10" filterUnits="userSpaceOnUse"><feOffset dy="10" in="SourceGraphic" result="FeOffset1023Out"/><feGaussianBlur in="FeOffset1023Out" result="FeGaussianBlur1024Out" stdDeviation="0 0"/></filter></defs><g><g><g filter="url(#3nk3a)"><path fill="none" d="M16 0h140v140H16z" mask="url(&quot;#3nk3b&quot;)"/><path fill="#d70531" d="M16 0h140v140H16z"/></g><path fill="#f70135" d="M16 0h140v140H16z"/></g><g><path fill="#f70135" d="M0 73.001l25 25 25-25-25-25L0 73"/></g><g><path fill="#fff" d="M64.98 77.692l31.167-31.157 13.337 13.333-31.168 31.157zM97.583 54.05l-1.462-1.461-25.086 25.077 1.461 1.462zm2.923 2.921l-1.462-1.46-25.086 25.078 1.462 1.46zm2.922 2.923l-1.461-1.461L76.881 83.51l1.461 1.461zm-1.31-19.245c1.638-1.637 4.282-1.648 5.906-.024l7.352 7.35c1.624 1.623 1.613 4.266-.025 5.904l-4.542 4.54L97.576 45.19zM63.953 79.43L76.58 92.05 65.516 95.98l-5.492-5.49zm-.533 17.233L57 99.002l2.34-6.418z"/></g></g></svg>